<?xml version="1.0" encoding="UTF-8"?>
<svg version="1.1" xmlns="http://www.w3.org/2000/svg" width="48" height="48">
<path d="M0 0 C3.22931108 1.82311216 5.46783054 4.10498773 7.375 7.3125 C8.5561473 12.39143339 8.58309513 16.4041607 6.8125 21.25 C4.44537614 24.84149827 2.32851395 27.24016913 -1.85546875 28.60546875 C-5.67328497 29.35130906 -8.33778384 29.18214625 -11.8125 27.375 C-15.74791146 24.44273264 -17.61416549 22.02702912 -18.5390625 17.16796875 C-18.70425937 11.43864105 -18.50286966 7.78124163 -14.6875 3.3125 C-10.24575871 -1.18511225 -6.03694087 -1.66615003 0 0 Z M-10.875 6.3125 C-13.90476848 10.14426601 -14.47062318 12.10551897 -14 17 C-12.49987532 19.5647293 -11.10816535 21.89183465 -9 24 C-5.66925632 24.58478294 -5.66925632 24.58478294 -2 24 C1.01066181 21.43773463 2.59121046 19.83955295 3.4453125 15.99609375 C3.6443562 12.4995594 3.07281527 10.13689271 1.4375 7.0625 C-2.872351 3.415703 -6.38346552 2.699744 -10.875 6.3125 Z " fill="#000000" transform="translate(18,10)"/>
<path d="M0 0 C1.65 0.33 3.3 0.66 5 1 C6.34315504 4.91336793 7.67280672 8.83119282 9 12.75 C9.3815625 13.86117188 9.763125 14.97234375 10.15625 16.1171875 C10.5171875 17.18710937 10.878125 18.25703125 11.25 19.359375 C11.75273438 20.83615723 11.75273438 20.83615723 12.265625 22.34277344 C13 25 13 25 13 29 C11.35 28.67 9.7 28.34 8 28 C7.34 25.36 6.68 22.72 6 20 C2.04 20 -1.92 20 -6 20 C-5.67 18.68 -5.34 17.36 -5 16 C-2.03 16 0.94 16 4 16 C3.71125 15.18015625 3.4225 14.3603125 3.125 13.515625 C2.75375 12.43796875 2.3825 11.3603125 2 10.25 C1.62875 9.18265625 1.2575 8.1153125 0.875 7.015625 C0 4 0 4 0 0 Z " fill="#000000" transform="translate(35,9)"/>
</svg>
