<?xml version="1.0" encoding="UTF-8"?>
<svg version="1.1" xmlns="http://www.w3.org/2000/svg" width="512" height="512">
<path d="M0 0 C2.97819304 0.09205324 4.02122686 0.31014179 6.625 1.9375 C8.79819007 5.46893386 8.7152691 7.24311629 8.125 11.375 C7.006641 14.10280552 5.76713844 16.7168256 4.4140625 19.3359375 C0.54817902 28.45005067 0.8330388 37.75014133 0.8503418 47.46044922 C0.84598848 49.0793786 0.84080328 50.69830592 0.83485413 52.31723022 C0.82151936 56.69335277 0.82087929 61.06938866 0.82341743 65.44552755 C0.82449091 69.10832314 0.81959412 72.77110146 0.814812 76.43389332 C0.80373588 85.08012835 0.80326871 93.72631992 0.80932617 102.37255859 C0.81536471 111.27089247 0.80305364 120.16906817 0.7817561 129.06737506 C0.76410195 136.72712325 0.75814476 144.38682126 0.76139385 152.04658902 C0.7632008 156.61261432 0.76062952 161.17852679 0.74667931 165.74453354 C0.73404336 170.04071075 0.7360992 174.33664258 0.74909019 178.63281631 C0.75144304 180.2020603 0.74876807 181.77132186 0.74046707 183.34054565 C0.66202399 199.33276261 3.75588709 214.56432877 15.1640625 226.5703125 C26.68008747 237.16872592 39.88096819 241.41770626 55.23828125 241.69140625 C56.52816956 241.71938293 56.52816956 241.71938293 57.84411621 241.7479248 C61.04181102 241.81597885 64.239667 241.87628267 67.4375 241.9375 C78.1728125 242.1540625 78.1728125 242.1540625 89.125 242.375 C89.125 217.625 89.125 192.875 89.125 167.375 C79.555 167.375 69.985 167.375 60.125 167.375 C42.79568845 163.04267211 30.7275203 156.87103843 21.0390625 141.6953125 C13.89757889 129.30702461 12.12413077 115.06736036 15.3125 101.125 C19.79668968 85.4718564 29.14619022 74.4333727 43.125 66.375 C51.35070081 62.58657291 59.10074472 61.22382778 68.13076782 61.23455811 C68.91963674 61.23158698 69.70850566 61.22861586 70.52127969 61.2255547 C73.15563613 61.21690693 75.78994692 61.21536278 78.42431641 61.21386719 C80.31703793 61.20923619 82.20975852 61.20421115 84.10247803 61.19882202 C89.23912793 61.18572201 94.37576477 61.17925758 99.51242876 61.17481136 C102.72505779 61.17187637 105.93768328 61.16777073 109.15031052 61.16330719 C119.2118041 61.14963772 129.27328956 61.13996873 139.33479178 61.1361053 C150.93058691 61.13162771 162.52626398 61.11409133 174.12202322 61.0851047 C183.09720684 61.0634515 192.07235733 61.05339905 201.04756677 61.05206418 C206.40229802 61.05101864 211.75691822 61.04516437 217.11162186 61.02724457 C222.15300268 61.01070122 227.19418969 61.00863869 232.23558807 61.01738358 C234.07854865 61.01815064 235.92151991 61.01385519 237.76445389 61.00392532 C256.28765013 60.91003161 272.40356773 63.82808515 286.125 77.375 C297.07249362 90.6597921 301.13293472 104.18513154 300.125 121.375 C297.94349662 135.56336058 291.09520153 148.41939172 279.48071289 157.07397461 C261.99290857 169.40219844 247.48979034 167.375 225.125 167.375 C225.125 192.125 225.125 216.875 225.125 242.375 C232.158125 242.271875 239.19125 242.16875 246.4375 242.0625 C248.63446533 242.03760498 250.83143066 242.01270996 253.0949707 241.98706055 C264.53775635 241.80363064 274.39488145 241.13943033 284.875 236.1875 C288.78442005 234.37615869 291.76889653 233.69168965 296.125 234.375 C298.5625 235.875 298.5625 235.875 300.125 238.375 C300.73421535 241.17968955 300.99057371 243.62236809 300.125 246.375 C296.66426813 249.72738483 292.8967216 251.60434802 288.5 253.5 C287.37335938 253.99757813 286.24671875 254.49515625 285.0859375 255.0078125 C273.28277181 259.38061291 260.78498752 258.67226431 248.39990234 258.66552734 C246.19928765 258.67151871 243.99867506 258.67832564 241.79806519 258.68588257 C235.84320825 258.70348934 229.88840887 258.70823575 223.93352842 258.70951414 C220.20573682 258.71093949 216.47795966 258.71521638 212.75017166 258.72050858 C200.39498996 258.73804007 188.03983879 258.74735101 175.6846451 258.74584763 C174.6880822 258.74572776 174.6880822 258.74572776 173.67138672 258.74560547 C173.00618757 258.74552371 172.34098843 258.74544195 171.65563174 258.74535771 C160.88805584 258.74454572 150.12062012 258.76366702 139.35308473 258.7918822 C128.26157147 258.82071383 117.17012971 258.83405183 106.07857859 258.83269465 C99.86581233 258.83218683 93.6532048 258.83777015 87.44047165 258.85905075 C81.59132532 258.87854026 75.74248739 258.87848472 69.89332962 258.86401749 C67.75898025 258.86194143 65.62461103 258.86655756 63.49029541 258.8787384 C39.34372167 259.00750878 20.30811168 254.72220715 2.234375 237.58203125 C-9.77662349 224.8947378 -16.04216292 207.99856822 -15.97265625 190.69140625 C-15.9712413 189.99103745 -15.96982635 189.29066864 -15.96836853 188.56907654 C-15.96282477 186.35850534 -15.95028326 184.14803996 -15.9375 181.9375 C-15.93247771 180.42773585 -15.92791609 178.91797009 -15.92382812 177.40820312 C-15.91287387 173.73043507 -15.8956489 170.05272788 -15.875 166.375 C-17.70998047 166.17197266 -17.70998047 166.17197266 -19.58203125 165.96484375 C-31.42983261 164.46205602 -42.0945714 157.44119195 -49.5625 148.21875 C-58.96337577 135.67673879 -61.78124365 122.8305735 -60.875 107.375 C-58.6934365 93.18624842 -51.84496105 80.33081157 -40.23046875 71.67578125 C-32.78483538 66.42722002 -25.14906365 62.23708495 -15.875 62.375 C-15.89071045 61.47894043 -15.9064209 60.58288086 -15.92260742 59.65966797 C-15.9744181 56.26377317 -16.01167494 52.86831161 -16.03979492 49.47216797 C-16.05467624 48.0157194 -16.07498796 46.55931392 -16.10131836 45.10302734 C-16.32606609 32.33206835 -15.44446787 20.12078426 -9.3125 8.625 C-8.71308594 7.47515625 -8.11367187 6.3253125 -7.49609375 5.140625 C-5.15546758 1.14746035 -4.74885015 0.45956614 0 0 Z M37.0625 92.625 C31.01566969 101.20759786 29.2123402 110.01068526 30.125 120.375 C32.87772104 131.40014695 38.8278558 139.82473931 48.125 146.375 C55.19637539 149.95512183 60.87774027 151.52418288 68.82106018 151.52217102 C69.60075871 151.52584771 70.38045724 151.5295244 71.18378299 151.5333125 C73.79904234 151.54433413 76.41426193 151.54819063 79.02954102 151.55200195 C80.90388617 151.55826786 82.77823008 151.56491477 84.65257263 151.57191467 C90.81134172 151.59294605 96.97011103 151.60331764 103.12890625 151.61328125 C105.25098114 151.61732944 107.37305591 151.62144638 109.49513054 151.62563133 C119.46745933 151.64468262 129.43978073 151.65891261 139.41212422 151.6672433 C150.91233414 151.67700954 162.41235127 151.70331338 173.91249329 151.74374419 C182.80779066 151.77394059 191.70303289 151.78871561 200.59838051 151.79202431 C205.90787845 151.79437118 211.21717041 151.80328407 216.52661324 151.82848549 C221.52614617 151.85183219 226.52533848 151.85597291 231.52491188 151.84572411 C233.35378403 151.84523021 235.18267332 151.85150739 237.01149368 151.86528015 C250.80801758 151.96331599 262.13593771 150.79341498 272.75 140.9375 C280.7054489 132.35398934 284.49685349 123.79943285 284.33984375 112.05859375 C283.51613825 101.76976322 278.72312212 93.21330991 271.125 86.375 C270.3825 85.694375 269.64 85.01375 268.875 84.3125 C261.51253121 79.12530608 254.32303514 77.22557631 245.42893982 77.22782898 C244.25939203 77.22231395 244.25939203 77.22231395 243.06621701 77.2166875 C240.45095766 77.20566587 237.83573807 77.20180937 235.22045898 77.19799805 C233.34611383 77.19173214 231.47176992 77.18508523 229.59742737 77.17808533 C223.43865828 77.15705395 217.27988897 77.14668236 211.12109375 77.13671875 C208.99901886 77.13267056 206.87694409 77.12855362 204.75486946 77.12436867 C194.78254067 77.10531738 184.81021927 77.09108739 174.83787578 77.0827567 C163.33766586 77.07299046 151.83764873 77.04668662 140.33750671 77.00625581 C131.44220934 76.97605941 122.54696711 76.96128439 113.65161949 76.95797569 C108.34212155 76.95562882 103.03282959 76.94671593 97.72338676 76.92151451 C92.72385383 76.89816781 87.72466152 76.89402709 82.72508812 76.90427589 C80.89621597 76.90476979 79.06732668 76.89849261 77.23850632 76.88471985 C60.30362496 76.76438335 48.92788581 79.68094275 37.0625 92.625 Z M-23.6875 81.125 C-24.72519531 81.63546875 -25.76289062 82.1459375 -26.83203125 82.671875 C-35.98854314 87.79670065 -40.92056529 95.66983324 -44.1796875 105.48828125 C-46.74869277 116.15398291 -44.3008635 125.40736681 -38.9375 134.75 C-33.12101794 142.15279535 -26.68228245 147.12201552 -17.875 150.375 C-17.215 150.375 -16.555 150.375 -15.875 150.375 C-15.875 126.615 -15.875 102.855 -15.875 78.375 C-18.89438189 78.375 -21.00006611 79.78625365 -23.6875 81.125 Z M105.125 167.375 C105.125 192.125 105.125 216.875 105.125 242.375 C139.445 242.375 173.765 242.375 209.125 242.375 C209.125 217.625 209.125 192.875 209.125 167.375 C174.805 167.375 140.485 167.375 105.125 167.375 Z " fill="#000000" transform="translate(98.875,57.625)"/>
<path d="M0 0 C2.20592508 -0.00407219 4.41184811 -0.00941768 6.61776733 -0.01593018 C12.57228535 -0.02953255 18.52664631 -0.02433446 24.48116684 -0.01479292 C30.73394929 -0.0071595 36.98671894 -0.01425212 43.23950195 -0.01895142 C54.40783963 -0.02474644 65.57612004 -0.01546554 76.74444401 -0.0001734 C86.84366186 0.01322741 96.94277621 0.01089858 107.04199219 -0.00292969 C118.80714668 -0.01903179 130.57225084 -0.02493505 142.33741665 -0.0160929 C148.5516807 -0.01143315 154.76587367 -0.01074461 160.98013306 -0.02070236 C166.82435777 -0.02941424 172.66838841 -0.02327333 178.51259232 -0.00601959 C180.64819645 -0.00207722 182.78381712 -0.00314986 184.91941452 -0.00980759 C199.25229031 -0.05034621 213.17570933 0.11906369 226.13671875 7.07568359 C227.13819946 7.59678711 227.13819946 7.59678711 228.15991211 8.12841797 C244.75933506 17.0370893 256.1231589 31.49191262 261.88671875 49.38818359 C264.25517915 58.54975555 264.12277807 67.69536234 264.01171875 77.07568359 C264.00166167 78.56721399 263.99254067 80.05875101 263.984375 81.55029297 C263.96259419 85.16306333 263.92821725 88.77557952 263.88671875 92.38818359 C265.11003906 92.52353516 266.33335937 92.65888672 267.59375 92.79833984 C279.44155136 94.30112757 290.10629015 101.32199164 297.57421875 110.54443359 C306.97509452 123.08644481 309.7929624 135.9326101 308.88671875 151.38818359 C306.70515525 165.57693518 299.8566798 178.43237203 288.2421875 187.08740234 C280.79655413 192.33596357 273.1607824 196.52609864 263.88671875 196.38818359 C263.9024292 197.28424316 263.91813965 198.18030273 263.93432617 199.10351562 C263.98613685 202.49941042 264.02339369 205.89487198 264.05151367 209.29101562 C264.06639499 210.74746419 264.08670671 212.20386967 264.11303711 213.66015625 C264.33778484 226.43111525 263.45618662 238.64239933 257.32421875 250.13818359 C256.72480469 251.28802734 256.12539063 252.43787109 255.5078125 253.62255859 C253.88671875 256.38818359 253.88671875 256.38818359 251.88671875 258.38818359 C244.95934445 259.05857466 244.95934445 259.05857466 241.38671875 256.82568359 C239.21352868 253.29424973 239.29644965 251.5200673 239.88671875 247.38818359 C241.00507775 244.66037807 242.24458031 242.046358 243.59765625 239.42724609 C247.44987553 230.3453473 247.17874507 221.0864247 247.16137695 211.41040039 C247.16573038 209.8029456 247.17091562 208.19549289 247.17686462 206.58804321 C247.19019926 202.2428441 247.1908394 197.89773227 247.18830132 193.5525167 C247.18722767 189.91466861 247.19212513 186.2768379 247.19690675 182.63899356 C247.20798318 174.05024993 247.20845009 165.46155004 247.20239258 156.87280273 C247.19635622 148.03697238 247.20865951 139.20130141 247.22996265 130.36549824 C247.24762537 122.75753861 247.25357259 115.14962948 247.2503249 107.54165012 C247.24851906 103.00745068 247.25107787 98.4733649 247.26503944 93.93918419 C247.27768916 89.67173053 247.27560675 85.40452374 247.26262856 81.13707352 C247.26027855 79.57953747 247.26294028 78.02198365 247.27125168 76.464468 C247.35189794 60.16404343 244.48803449 44.44322548 232.84765625 32.19287109 C221.33159481 21.59442411 208.13046974 17.34579334 192.7734375 17.07177734 C191.80388626 17.05099625 190.83433502 17.03021515 189.83540344 17.00880432 C186.74841168 16.94359418 183.66133723 16.8845568 180.57421875 16.82568359 C178.47720511 16.78247123 176.38019972 16.73885607 174.28320312 16.69482422 C169.15112568 16.58794209 164.01896534 16.48659464 158.88671875 16.38818359 C158.89782181 17.0786528 158.90892487 17.76912201 158.92036438 18.48051453 C159.03097822 25.66664699 159.10639525 32.85253766 159.16137695 40.03930664 C159.18369869 42.72156813 159.21848669 45.4032378 159.26391602 48.08520508 C159.324564 51.94027615 159.35293002 55.7944413 159.375 59.64990234 C159.40080643 60.84902756 159.42661285 62.04815277 159.45320129 63.28361511 C159.45357895 64.40439957 159.4539566 65.52518402 159.4543457 66.67993164 C159.46544876 67.66366257 159.47655182 68.64739349 159.48799133 69.66093445 C158.58482515 73.75751104 157.37303606 75.02239566 153.88671875 77.38818359 C149.87035191 78.1287827 145.9065281 78.07094243 141.83203125 78.03515625 C140.61038269 78.04391785 139.38873413 78.05267944 138.13006592 78.06170654 C134.78661195 78.07992564 131.44470789 78.07568156 128.10134125 78.05981112 C124.59895276 78.04713148 121.09662944 78.05889792 117.59423828 78.06674194 C111.71309551 78.07583259 105.83226692 78.0638663 99.95117188 78.04003906 C93.15661758 78.01282843 86.36281348 78.02164304 79.56827736 78.04917109 C73.72944033 78.07187818 67.89082883 78.07505458 62.0519619 78.06197774 C58.56692588 78.05419183 55.08224223 78.05311737 51.597229 78.06966019 C47.71165927 78.0868168 43.82692642 78.06302299 39.94140625 78.03515625 C38.21286407 78.05033798 38.21286407 78.05033798 36.44940186 78.06582642 C28.73406756 77.96318794 28.73406756 77.96318794 24.66877747 75.20451355 C22.65787019 72.0265159 22.27697883 70.41114092 22.3190918 66.67993164 C22.31946945 65.55914719 22.31984711 64.43836273 22.32023621 63.28361511 C22.34604263 62.0844899 22.37184906 60.88536469 22.3984375 59.64990234 C22.40551224 58.41399857 22.41258698 57.17809479 22.4198761 55.90473938 C22.44309161 52.63106817 22.48795098 49.358642 22.543396 46.08538818 C22.59469682 42.7404731 22.6169859 39.39550364 22.64257812 36.05029297 C22.69767731 29.49577122 22.78132914 22.94207919 22.88671875 16.38818359 C16.82146914 16.45753795 10.7568778 16.54573169 4.69213867 16.65063477 C2.63329432 16.68368332 0.57436373 16.71177625 -1.48461914 16.73461914 C-14.10808896 16.87845019 -25.26761905 17.09665098 -36.86328125 22.57568359 C-40.7727013 24.3870249 -43.75717778 25.07149394 -48.11328125 24.38818359 C-50.55078125 22.88818359 -50.55078125 22.88818359 -52.11328125 20.38818359 C-52.72338998 17.57938116 -52.75232056 15.19414709 -52.11328125 12.38818359 C-40.62220435 -1.48035749 -16.11948215 -0.0502525 0 0 Z M38.88671875 16.38818359 C38.88671875 31.23818359 38.88671875 46.08818359 38.88671875 61.38818359 C73.20671875 61.38818359 107.52671875 61.38818359 142.88671875 61.38818359 C142.88671875 46.53818359 142.88671875 31.68818359 142.88671875 16.38818359 C108.56671875 16.38818359 74.24671875 16.38818359 38.88671875 16.38818359 Z M263.88671875 108.38818359 C263.88671875 132.14818359 263.88671875 155.90818359 263.88671875 180.38818359 C274.68549336 176.78859206 283.65663266 171.74335365 288.98828125 161.21240234 C293.30661504 151.72138814 294.66299975 142.6218558 291.13671875 132.51318359 C286.56355309 121.34503167 278.8288495 113.90911468 267.875 109.12255859 C265.92729356 108.2726923 265.92729356 108.2726923 263.88671875 108.38818359 Z " fill="#000000" transform="translate(165.11328125,27.61181640625)"/>
<path d="M0 0 C5.63298818 4.93110678 8.30066082 10.58192131 11.01660156 17.44287109 C14.50781707 26.94434939 14.50781707 26.94434939 20.94824219 34.39501953 C25.13427378 36.02603184 29.35580739 36.07525316 33.80224609 35.98828125 C37.46257962 36.00779869 40.97778377 36.683035 44.5625 37.375 C45.23023438 37.49681641 45.89796875 37.61863281 46.5859375 37.74414062 C53.2794841 39.06256647 57.56007956 41.56007956 62.3125 46.3125 C65.9699086 52.13726185 68.08675179 58.03461535 67 65 C64.63740355 75.0216239 57.54041367 80.82646683 50.10424805 87.32006836 C43.76663962 92.58846097 43.76663962 92.58846097 40.5 99.82470703 C40.73441124 102.67687594 41.26182045 105.23780464 42 108 C42.27339763 109.53986032 42.53703152 111.08149864 42.7890625 112.625 C42.92707275 113.3456665 43.06508301 114.06633301 43.20727539 114.80883789 C45.02128872 124.32419127 46.66189018 133.15340874 41.4375 141.875 C37.65019022 146.97963493 32.98567236 150.00477588 27 152 C17.40246273 153.07421977 10.62295864 150.00154464 2.35546875 145.47265625 C1.51749756 145.01745605 0.67952637 144.56225586 -0.18383789 144.09326172 C-1.87335575 143.16773191 -3.55394316 142.22567887 -5.22436523 141.26611328 C-6.40494507 140.61425049 -6.40494507 140.61425049 -7.609375 139.94921875 C-8.31030273 139.55049561 -9.01123047 139.15177246 -9.73339844 138.7409668 C-13.74379018 137.42994364 -16.96613773 138.54568514 -20.72900391 140.19921875 C-21.63569824 140.69035156 -22.54239258 141.18148437 -23.4765625 141.6875 C-24.476875 142.22117187 -25.4771875 142.75484375 -26.5078125 143.3046875 C-27.53648437 143.86414063 -28.56515625 144.42359375 -29.625 145 C-31.6776196 146.1080061 -33.73223017 147.21233387 -35.7890625 148.3125 C-36.69350098 148.80363281 -37.59793945 149.29476562 -38.52978516 149.80078125 C-44.31875363 152.61116009 -50.37828603 152.90406694 -56.59765625 151.3515625 C-63.568951 148.89110553 -67.64294861 145.50612766 -71.0625 138.96875 C-75.03136246 129.18833893 -71.82129654 118.23766882 -70.01708984 108.23071289 C-69.88641113 107.4958667 -69.75573242 106.76102051 -69.62109375 106.00390625 C-69.5017749 105.35236572 -69.38245605 104.7008252 -69.25952148 104.02954102 C-69.17387939 103.35979248 -69.0882373 102.69004395 -69 102 C-68.89083252 101.19449707 -68.78166504 100.38899414 -68.66918945 99.55908203 C-69.15014918 95.83847697 -70.95200682 94.57529033 -73.671875 92.05078125 C-74.65633929 91.11011948 -75.64071124 90.16936106 -76.625 89.22851562 C-78.1784813 87.77383456 -79.73683353 86.3246848 -81.29882812 84.87915039 C-88.76450747 77.92715365 -94.58362015 71.55731335 -95.5 61 C-95.08444403 54.37791453 -92.63279374 48.05113373 -87.6875 43.5625 C-80.52642166 37.75387714 -72.09016075 37.04681346 -63.25 35.875 C-60.81739852 35.54131331 -58.38509046 35.20547842 -55.953125 34.8671875 C-54.88223633 34.72394043 -53.81134766 34.58069336 -52.70800781 34.43310547 C-49.91318305 34.06130304 -49.91318305 34.06130304 -47 33 C-45.58849846 30.66314024 -45.58849846 30.66314024 -44.36328125 27.75 C-43.86763672 26.66589844 -43.37199219 25.58179688 -42.86132812 24.46484375 C-41.84366939 22.18826545 -40.83050642 19.90967115 -39.82226562 17.62890625 C-36.08639783 9.48576951 -31.67543498 0.82541556 -23.125 -3.0625 C-14.86913965 -5.42131724 -7.26112477 -4.57969 0 0 Z M-18.52539062 14.0637207 C-21.14912062 17.17694097 -22.90968766 20.31325437 -24.59375 23.98046875 C-25.23799569 25.32240276 -25.8825356 26.66419555 -26.52734375 28.00585938 C-27.52010515 30.10346815 -28.50742888 32.20341982 -29.48876953 34.30639648 C-30.44742735 36.35050234 -31.42562332 38.38433206 -32.40625 40.41796875 C-32.69286499 41.04817429 -32.97947998 41.67837982 -33.27478027 42.3276825 C-34.60311153 45.06271089 -35.61328086 46.76977812 -38.25390625 48.34179688 C-41.65970093 49.15812177 -45.05986268 49.68793919 -48.53125 50.11328125 C-49.99621151 50.31097827 -51.46105204 50.50957351 -52.92578125 50.70898438 C-55.21561836 51.01431237 -57.50565892 51.3131991 -59.79833984 51.59643555 C-62.02479817 51.87468313 -64.2463583 52.17942928 -66.46875 52.48828125 C-67.48926453 52.60421379 -67.48926453 52.60421379 -68.53039551 52.7224884 C-72.08628868 53.23735465 -74.11575751 54.08470312 -77.03320312 56.21948242 C-79.27487573 58.8427466 -79.27487573 58.8427466 -79.08105469 62.01342773 C-77.81708207 65.50533762 -76.36612087 67.20923016 -73.703125 69.78515625 C-72.8265625 70.64560547 -71.95 71.50605469 -71.046875 72.39257812 C-70.12390625 73.27365234 -69.2009375 74.15472656 -68.25 75.0625 C-67.3425 75.94744141 -66.435 76.83238281 -65.5 77.74414062 C-63.80155286 79.39913334 -62.09800767 81.04892241 -60.38769531 82.69165039 C-57.8964934 85.10006696 -55.44417378 87.54394849 -53 90 C-52.505 90.495 -52.505 90.495 -52 91 C-51.9137857 100.41460182 -53.91408113 109.75725844 -55.71557617 118.95166016 C-57.04915747 125.97750187 -57.04915747 125.97750187 -56 133 C-54.48105194 135.09764165 -54.48105194 135.09764165 -52 136 C-45.04223917 135.8437491 -39.86747269 132.51242252 -33.9375 129.125 C-31.10001614 127.53328687 -28.26134687 125.94373575 -25.42138672 124.35644531 C-23.50720591 123.2841335 -21.59832865 122.20235467 -19.69140625 121.1171875 C-15.39361093 119.33319699 -12.21271857 119.50906031 -7.90380859 121.25341797 C-6.82953613 121.82721191 -5.75526367 122.40100586 -4.6484375 122.9921875 C-4.06712067 123.29818878 -3.48580383 123.60419006 -2.88687134 123.91946411 C-1.04323555 124.89320734 0.790805 125.88360844 2.625 126.875 C3.86397754 127.53369282 5.10355623 128.19125622 6.34375 128.84765625 C8.62061973 130.05408052 10.89274838 131.2680859 13.16259766 132.48779297 C14.09894043 132.98682129 15.0352832 133.48584961 16 134 C16.7223584 134.39848145 17.4447168 134.79696289 18.18896484 135.20751953 C21.10233324 136.48236367 23.03133764 135.94744543 26 135 C28.20048327 132.22569456 29.00872377 130.65166569 28.9609375 127.08203125 C28.76757812 126.00308594 28.57421875 124.92414063 28.375 123.8125 C28.065625 121.97945312 28.065625 121.97945312 27.75 120.109375 C27.50044435 118.73950231 27.25041884 117.36971516 27 116 C26.58703415 113.64449088 26.18067934 111.28801382 25.77978516 108.93041992 C25.51605192 107.38762823 25.24523916 105.84602481 24.96630859 104.3059082 C22.94785635 92.75357275 22.94785635 92.75357275 25.5 88.5 C27.41539891 86.58460109 29.32689162 84.82492802 31.375 83.0625 C35.52640148 79.48615033 39.50478771 75.75102407 43.4375 71.9375 C44.0651123 71.34783447 44.69272461 70.75816895 45.33935547 70.15063477 C48.07740123 67.46398833 49.80887692 65.48788289 51.22265625 61.87890625 C51.25603949 58.82999024 51.25603949 58.82999024 48.95678711 56.41455078 C45.51650039 53.60516793 42.74450225 52.97401547 38.46875 52.48828125 C37.75521362 52.38911911 37.04167725 52.28995697 36.30651855 52.18778992 C34.03982081 51.87612982 31.77074175 51.59302609 29.5 51.3125 C27.23027401 51.01618672 24.96154496 50.71385331 22.69348145 50.40507507 C21.28662892 50.21521988 19.87867189 50.03332217 18.46960449 49.860672 C11.15443391 48.90887869 11.15443391 48.90887869 8 47 C6.49418754 44.62099893 5.31461196 42.44719392 4.15234375 39.91015625 C3.81376846 39.20982773 3.47519318 38.50949921 3.12635803 37.78794861 C2.04784446 35.55319482 0.99113288 33.30907917 -0.0625 31.0625 C-1.12171064 28.82061245 -2.18560571 26.58142079 -3.2620697 24.34776306 C-3.93047851 22.95937602 -4.58880558 21.56607776 -5.23561096 20.16749573 C-6.96739732 16.55462167 -8.38021927 13.88105968 -12 12 C-16.02733914 11.57814864 -16.02733914 11.57814864 -18.52539062 14.0637207 Z " fill="#000000" transform="translate(270,332)"/>
<path d="M0 0 C3.78042707 2.7066536 5.91336997 5.07000551 8.0078125 9.2109375 C8.51957031 10.20867187 9.03132813 11.20640625 9.55859375 12.234375 C10.07550781 13.27078125 10.59242187 14.3071875 11.125 15.375 C11.64964844 16.40367187 12.17429687 17.43234375 12.71484375 18.4921875 C13.71910226 20.46511055 14.7171607 22.44120591 15.70800781 24.42089844 C16.47389758 25.94978345 17.24662809 27.47532383 18.03417969 28.99316406 C20 32.78883353 20 32.78883353 20 35 C20.66418945 35.07516846 21.32837891 35.15033691 22.01269531 35.2277832 C56.6175045 39.19779383 56.6175045 39.19779383 64 48 C68.00324596 53.27700604 68.460583 58.37363634 68.53125 64.875 C67.02076015 73.76023439 62.2446704 77.79090404 55.67016602 83.46118164 C46.5965019 90.94830807 46.5965019 90.94830807 41.25390625 100.98730469 C41.11034116 107.34850494 42.87896984 113.06862361 45 119 C46.90956486 126.87276742 47.12653659 134.84733658 43 142 C39.15512944 147.80427575 34.75334833 151.15916795 28 153 C18.67145874 154.42274922 11.80657501 150.87665256 4.08984375 145.921875 C-4.49051915 140.08362353 -4.49051915 140.08362353 -14.33203125 138.18505859 C-18.78014585 139.56056791 -22.47233769 142.04515835 -26.21728516 144.7578125 C-28.90853212 146.633061 -31.80089731 148.01453127 -34.75 149.4375 C-36.13445313 150.14712891 -36.13445313 150.14712891 -37.546875 150.87109375 C-43.84281944 153.76843124 -50.69458986 154.03446111 -57.25 151.75 C-63.25588355 149.15736116 -67.07457746 145.59734802 -70.046875 139.765625 C-72.72282603 132.00098021 -71.45711617 123.85450602 -69.7734375 116.01171875 C-66.89013398 105.25107217 -66.89013398 105.25107217 -68.45703125 94.70703125 C-70.8254535 92.36281774 -73.14958867 90.71529178 -76 89 C-77.39862219 87.84041506 -78.77537535 86.65376253 -80.125 85.4375 C-80.76953125 84.88191406 -81.4140625 84.32632813 -82.078125 83.75390625 C-87.77888943 78.55137936 -92.52065122 73.66528984 -93.3359375 65.73046875 C-93.42734773 57.43956056 -93.22778912 51.44121117 -87.375 45.29296875 C-80.55080878 39.44975502 -72.30727426 38.42796241 -63.6640625 37.26171875 C-62.72199951 37.13434326 -61.77993652 37.00696777 -60.80932617 36.87573242 C-58.91554071 36.62796095 -57.0197913 36.39470743 -55.12231445 36.17700195 C-54.24534912 36.06702881 -53.36838379 35.95705566 -52.46484375 35.84375 C-51.677146 35.75287109 -50.88944824 35.66199219 -50.07788086 35.56835938 C-47.50315636 34.86409917 -46.63954281 34.09737088 -45 32 C-44.03951711 30.26531602 -43.14350815 28.49428067 -42.29296875 26.703125 C-41.78830078 25.6615625 -41.28363281 24.62 -40.76367188 23.546875 C-39.72114976 21.36623394 -38.68202934 19.18396301 -37.64648438 17 C-33.47363764 8.41102269 -29.62642466 1.24372777 -20.42578125 -2.34375 C-13.41638204 -4.24001259 -6.36704282 -3.53285192 0 0 Z M-20 18 C-21.88634041 21.21131929 -21.88634041 21.21131929 -23.48046875 24.76171875 C-23.77939529 25.39358597 -24.07832184 26.02545319 -24.38630676 26.6764679 C-25.33023626 28.67554376 -26.25962642 30.68092813 -27.1875 32.6875 C-28.12832395 34.70362006 -29.07220598 36.71820436 -30.02082825 38.73066711 C-30.87598251 40.54751539 -31.7218059 42.36874683 -32.56713867 44.19018555 C-34 47 -34 47 -36 49 C-38.22387695 49.5625 -38.22387695 49.5625 -40.98828125 50 C-42.50470215 50.24556641 -42.50470215 50.24556641 -44.05175781 50.49609375 C-45.12780273 50.66238281 -46.20384766 50.82867187 -47.3125 51 C-48.40014648 51.17660156 -49.48779297 51.35320312 -50.60839844 51.53515625 C-55.17837093 52.27202849 -59.74632404 52.98845019 -64.33984375 53.5625 C-65.46519531 53.706875 -66.59054688 53.85125 -67.75 54 C-69.16539063 54.1546875 -69.16539063 54.1546875 -70.609375 54.3125 C-73.6773942 55.19480617 -75.00416927 56.54499181 -77 59 C-77.91955603 61.82491198 -77.91955603 61.82491198 -77 65 C-73.5485487 70.11982656 -68.86922139 74.09816596 -64.1953125 78.06640625 C-53.06518283 87.86963434 -53.06518283 87.86963434 -51 92 C-50.61128334 100.09826376 -52.03764869 107.55169363 -53.578125 115.47265625 C-55.85161234 125.81490734 -55.85161234 125.81490734 -53.4375 135.625 C-49.95955331 137.58691864 -47.86053908 136.79357354 -44 136 C-40.93659235 134.76376599 -40.93659235 134.76376599 -37.98828125 133.12890625 C-36.35729492 132.26749023 -36.35729492 132.26749023 -34.69335938 131.38867188 C-33.57767578 130.78603516 -32.46199219 130.18339844 -31.3125 129.5625 C-30.18521484 128.96373047 -29.05792969 128.36496094 -27.89648438 127.74804688 C-25.8077048 126.63842156 -23.7212487 125.52440307 -21.63793945 124.40454102 C-20.33215942 123.70929321 -20.33215942 123.70929321 -19 123 C-18.05290161 122.38112915 -18.05290161 122.38112915 -17.08666992 121.74975586 C-12.69038191 120.17013722 -8.73610865 121.67014377 -4.63842773 123.50634766 C-3.49833252 124.13589355 -2.3582373 124.76543945 -1.18359375 125.4140625 C0.08774392 126.09923062 1.35923283 126.78411817 2.63085938 127.46875 C4.60423791 128.54759917 6.57451771 129.63165888 8.54174805 130.72167969 C10.45935038 131.77904252 12.38693353 132.81606252 14.31640625 133.8515625 C15.45537354 134.47885254 16.59434082 135.10614258 17.76782227 135.75244141 C21.47884429 137.18482471 23.25180388 137.28122561 27 136 C29.27663734 133.88631638 29.95332598 132.74089267 30.14892578 129.63598633 C29.98626221 128.34084106 29.98626221 128.34084106 29.8203125 127.01953125 C29.70204102 126.04967285 29.58376953 125.07981445 29.46191406 124.08056641 C28.53071579 117.8702811 27.43523834 111.6946071 26.28515625 105.52148438 C26.10597656 104.50763672 25.92679687 103.49378906 25.7421875 102.44921875 C25.5757373 101.54518311 25.40928711 100.64114746 25.23779297 99.7097168 C24.95080903 96.43945528 25.05179772 94.16304818 26 91 C27.88942987 88.77965407 29.68309453 86.91790023 31.8203125 84.97265625 C33.00686899 83.83956808 34.19305585 82.70609274 35.37890625 81.57226562 C37.25330458 79.80981941 39.13369414 78.05445372 41.02197266 76.30688477 C42.84706124 74.60862437 44.6467206 72.88639137 46.4453125 71.16015625 C47.01605499 70.64638931 47.58679749 70.13262238 48.17483521 69.60328674 C51.10328365 66.76960317 51.98852276 65.43674053 52.09716797 61.30249023 C51.24565007 58.06122554 51.24565007 58.06122554 49.44311523 56.14526367 C46.03232457 54.54638099 42.60873953 54.12220773 38.91015625 53.67578125 C37.30514133 53.44996502 35.70032878 53.22270652 34.09570312 52.99414062 C31.57812744 52.64774381 29.06065181 52.3122728 26.53833008 52.00219727 C12.64163358 50.26188363 12.64163358 50.26188363 8.97045898 47.43994141 C7.61096294 45.34426697 6.83057856 43.35555201 6 41 C5.0240852 39.02897486 4.03194533 37.0659346 3.02734375 35.109375 C1.46481191 31.90886505 -0.08518898 28.70275254 -1.62695312 25.4921875 C-2.13291016 24.45835937 -2.63886719 23.42453125 -3.16015625 22.359375 C-3.83510132 20.95896973 -3.83510132 20.95896973 -4.52368164 19.53027344 C-6.0780622 16.86620859 -7.66664964 15.00883322 -10 13 C-15.02218891 11.84103333 -16.80251971 14.38982344 -20 18 Z " fill="#000000" transform="translate(93,331)"/>
<path d="M0 0 C7.06998787 6.23463259 10.21375974 15.4799088 13.88085938 23.92382812 C16.42912359 29.88190947 16.42912359 29.88190947 21.00146484 34.17431641 C23.37089974 34.73129648 25.56872692 34.8970179 28 35 C29.93976019 35.27073057 31.87724369 35.55813153 33.8125 35.859375 C36.91225863 36.30895831 40.01022628 36.75130712 43.1171875 37.1484375 C50.76002371 38.2958353 57.19697107 40.63009698 62.40039062 46.60913086 C66.99845943 53.20915635 66.57034653 60.2571138 66 68 C63.80604182 77.99094802 52.12986806 86.27377455 44.65625 92.46484375 C42.7593217 94.22308154 41.36034173 95.78965835 40 98 C39.949584 100.38596854 39.949584 100.38596854 40.58203125 102.89453125 C40.77297363 103.84303955 40.96391602 104.79154785 41.16064453 105.76879883 C41.48331299 107.27543091 41.48331299 107.27543091 41.8125 108.8125 C46.35369202 132.56742719 46.35369202 132.56742719 41.5 141.625 C37.57962009 147.20828987 32.65150096 150.56751863 26 152 C18.50056388 152.8093854 13.22975887 151.33252478 6.625 147.875 C5.86445313 147.49601563 5.10390625 147.11703125 4.3203125 146.7265625 C3.546875 146.33984375 2.7734375 145.953125 1.9765625 145.5546875 C1.17976074 145.16120117 0.38295898 144.76771484 -0.43798828 144.36230469 C-3 143 -3 143 -5.83935547 141.14550781 C-11.58582046 137.55552892 -11.58582046 137.55552892 -18.10595703 137.71044922 C-21.37590101 139.26597376 -24.33966209 141.0264533 -27.375 143 C-29.44331994 144.25329424 -31.51357286 145.50340518 -33.5859375 146.75 C-34.4836084 147.32234375 -35.3812793 147.8946875 -36.30615234 148.484375 C-43.03206746 152.2685404 -49.91225686 153.3092238 -57.3984375 151.3828125 C-64.41637817 148.6762347 -69.04042506 143.83395098 -72.4375 137.1875 C-74.00067622 128.32950143 -72.66483016 119.79036296 -70.9375 111.0625 C-70.54312226 109.05487479 -70.15608187 107.04579054 -69.77734375 105.03515625 C-69.60452881 104.1625415 -69.43171387 103.28992676 -69.25366211 102.39086914 C-68.97683174 99.78162964 -68.97291647 98.41395645 -70 96 C-72.1199843 93.53040165 -72.1199843 93.53040165 -74.8046875 91.04296875 C-75.79047234 90.08539738 -76.77614588 89.12771141 -77.76171875 88.16992188 C-79.31439305 86.67918807 -80.87029418 85.19198036 -82.42919922 83.70776367 C-83.93811337 82.2657791 -85.43416994 80.8113245 -86.9296875 79.35546875 C-87.82929199 78.49590576 -88.72889648 77.63634277 -89.65576172 76.75073242 C-94.52581719 71.03620264 -95.57045385 65.32765947 -95.33984375 57.9296875 C-94.47594397 50.48227556 -90.71168031 46.24700918 -85.1953125 41.4453125 C-80.76510653 38.52862886 -75.79085867 37.68241068 -70.61328125 36.9296875 C-69.42798828 36.75566406 -68.24269531 36.58164062 -67.02148438 36.40234375 C-65.79751953 36.22832031 -64.57355469 36.05429687 -63.3125 35.875 C-62.07693359 35.69324219 -60.84136719 35.51148438 -59.56835938 35.32421875 C-50.44319784 34 -50.44319784 34 -47 34 C-46.67128906 32.85724609 -46.67128906 32.85724609 -46.3359375 31.69140625 C-44.48382035 26.57371413 -42.06323179 21.79792257 -39.625 16.9375 C-39.14289063 15.95716797 -38.66078125 14.97683594 -38.1640625 13.96679688 C-34.21300999 6.05932358 -30.98034611 0.99017305 -23 -3 C-15.12315181 -5.36933083 -6.98092058 -4.42827871 0 0 Z M-22 18 C-23.19744416 20.16327914 -24.32175001 22.36843642 -25.375 24.60546875 C-25.97365692 25.8484525 -26.57262436 27.09128675 -27.171875 28.33398438 C-28.09176102 30.26707462 -29.00689649 32.20220282 -29.91601562 34.14038086 C-30.80671497 36.03073288 -31.71474582 37.91197259 -32.625 39.79296875 C-33.15351563 40.9121167 -33.68203125 42.03126465 -34.2265625 43.18432617 C-36.24964298 46.39635635 -37.53167963 47.50454764 -41 49 C-43.54519731 49.53260479 -45.96163174 49.93888903 -48.53125 50.24609375 C-49.99612381 50.44574308 -51.46096665 50.6456198 -52.92578125 50.84570312 C-55.21600149 51.14469455 -57.50676858 51.438352 -59.79833984 51.72680664 C-62.02387999 52.01114673 -64.2460874 52.31518433 -66.46875 52.62109375 C-67.14909302 52.70040634 -67.82943604 52.77971893 -68.53039551 52.86143494 C-73.05354739 53.49421939 -75.94277736 54.55179713 -79 58 C-79.8884408 60.91001516 -79.8884408 60.91001516 -79 64 C-77.17074552 66.29358486 -75.48433129 68.10207245 -73.34765625 70.0625 C-72.77293076 70.61687744 -72.19820526 71.17125488 -71.60606384 71.74243164 C-69.77193088 73.5100128 -67.91967077 75.25666126 -66.0625 77 C-64.20978689 78.74412655 -62.36232024 80.49238267 -60.52964783 82.25756836 C-59.39083089 83.35424009 -58.24045337 84.4390672 -57.07740784 85.51000977 C-53.58310438 88.8717568 -52.12200115 91.12933877 -52 96 C-52.34545898 99.24804688 -52.34545898 99.24804688 -52.99609375 102.71875 C-53.22490234 103.98074219 -53.45371094 105.24273437 -53.68945312 106.54296875 C-53.93808039 107.86211539 -54.1874356 109.18112503 -54.4375 110.5 C-54.9220617 113.09261218 -55.3979935 115.68648726 -55.87109375 118.28125 C-56.08693115 119.42658203 -56.30276855 120.57191406 -56.52514648 121.75195312 C-57.57063869 128.243747 -57.57063869 128.243747 -54.875 133.9375 C-52.21381845 136.30257137 -52.21381845 136.30257137 -49.23583984 135.84228516 C-45.5531873 134.8836952 -42.67744561 133.43459667 -39.3515625 131.5859375 C-38.08630496 130.90036307 -36.82066797 130.21548855 -35.5546875 129.53125 C-33.58631404 128.45527129 -31.62194126 127.37328936 -29.6640625 126.27832031 C-27.75687204 125.21653607 -25.83706862 124.18123205 -23.9140625 123.1484375 C-22.7792041 122.52114746 -21.6443457 121.89385742 -20.47509766 121.24755859 C-15.22244532 119.36185862 -11.37559545 120.02085007 -6.16748047 122.16748047 C-5.32588379 122.64588379 -4.48428711 123.12428711 -3.6171875 123.6171875 C-2.67746094 124.14183594 -1.73773438 124.66648437 -0.76953125 125.20703125 C0.18566406 125.75746094 1.14085937 126.30789063 2.125 126.875 C4.04386538 127.9564489 5.96312516 129.03719834 7.8828125 130.1171875 C8.77339355 130.62145264 9.66397461 131.12571777 10.58154297 131.64526367 C16.90266119 135.53208314 16.90266119 135.53208314 24 136 C26.49720824 134.6715404 26.49720824 134.6715404 28 132 C28.41393132 124.92107291 27.34838247 118.43323688 26 111.5 C22.5554719 93.78860888 22.5554719 93.78860888 25.1796875 88.72265625 C25.73914063 88.17480469 26.29859375 87.62695312 26.875 87.0625 C27.51308594 86.41539062 28.15117187 85.76828125 28.80859375 85.1015625 C29.53175781 84.40804687 30.25492187 83.71453125 31 83 C31.79535156 82.18273437 32.59070313 81.36546875 33.41015625 80.5234375 C37.92215514 75.90683277 42.55359745 71.51851803 47.50390625 67.375 C49.72061658 65.33771009 49.98442782 64.14326405 50.3125 61.125 C50.26739017 57.98689207 50.26739017 57.98689207 48.44506836 55.89306641 C45.30484229 53.46178204 42.39864659 53.04686365 38.56640625 52.5859375 C37.85145493 52.48536041 37.1365036 52.38478333 36.39988708 52.28115845 C34.12259697 51.96323381 31.84312712 51.66793784 29.5625 51.375 C27.28613415 51.07132388 25.01059816 50.76280213 22.73582458 50.44741821 C21.32333206 50.25275404 19.90981488 50.0653423 18.49525452 49.88632202 C14.73611865 49.38090919 11.37760882 48.76465179 8 47 C6.52917964 44.62934849 5.38086023 42.46136218 4.25 39.9375 C3.56569344 38.49519487 2.87942257 37.05382042 2.19140625 35.61328125 C1.8370752 34.86127441 1.48274414 34.10926758 1.11767578 33.33447266 C-0.77268384 29.38610684 -2.78344448 25.50346376 -4.8125 21.625 C-5.37179199 20.52853149 -5.37179199 20.52853149 -5.94238281 19.40991211 C-7.70194147 16.04752793 -8.78722229 14.14185181 -12 12 C-17.30952174 10.88220595 -19.16976292 14.02836401 -22 18 Z " fill="#000000" transform="translate(446,332)"/>
<path d="M0 0 C5.21124298 4.67420649 8.48207214 9.20711202 9.24609375 16.27734375 C9.61779168 23.58740305 8.11594846 29.52604895 3.1640625 35.046875 C-2.84718933 40.62052612 -8.24143835 42.52556923 -16.4140625 42.3046875 C-23.95110828 41.41663679 -28.97250979 37.85869138 -33.625 32 C-37.42458825 26.47332619 -37.76781852 20.51661357 -37 14 C-35.14192232 6.77936901 -31.07107696 2.17386541 -25 -2 C-16.9546304 -6.0226848 -7.38364072 -4.89508033 0 0 Z M-18.8125 14.125 C-21.30339948 16.81259963 -21.30339948 16.81259963 -21.0625 20.125 C-20.18706667 23.01645649 -20.18706667 23.01645649 -18.3125 24.9375 C-15.10056066 26.41325591 -13.33525198 26.06444212 -10 25 C-7.9214392 23.42304368 -7.9214392 23.42304368 -7 21 C-7.07222995 17.46073241 -7.32805009 15.6951206 -9.8125 13.125 C-13.60255582 11.17582844 -15.48904611 11.61394595 -18.8125 14.125 Z " fill="#000000" transform="translate(360,153)"/>
<path d="M0 0 C5.21124298 4.67420649 8.48207214 9.20711202 9.24609375 16.27734375 C9.61779168 23.58740305 8.11594846 29.52604895 3.1640625 35.046875 C-2.84718933 40.62052612 -8.24143835 42.52556923 -16.4140625 42.3046875 C-23.95110828 41.41663679 -28.97250979 37.85869138 -33.625 32 C-37.42458825 26.47332619 -37.76781852 20.51661357 -37 14 C-35.14192232 6.77936901 -31.07107696 2.17386541 -25 -2 C-16.9546304 -6.0226848 -7.38364072 -4.89508033 0 0 Z M-18.8125 14.125 C-21.30339948 16.81259963 -21.30339948 16.81259963 -21.0625 20.125 C-20.18706667 23.01645649 -20.18706667 23.01645649 -18.3125 24.9375 C-15.10056066 26.41325591 -13.33525198 26.06444212 -10 25 C-7.9214392 23.42304368 -7.9214392 23.42304368 -7 21 C-7.07222995 17.46073241 -7.32805009 15.6951206 -9.8125 13.125 C-13.60255582 11.17582844 -15.48904611 11.61394595 -18.8125 14.125 Z " fill="#000000" transform="translate(180,153)"/>
<path d="M0 0 C0.763125 0.680625 1.52625 1.36125 2.3125 2.0625 C5.84974486 4.61260676 8.3691965 4.56022169 12.64453125 4.40234375 C15.90530912 3.84536179 17.56645686 2.1704574 20 0 C24.01631712 -1.07579923 26.06394964 -1.42732734 29.875 0.3125 C32.52044276 2.41329278 32.89702313 3.36742778 33.4375 6.6875 C32.80246676 11.49560884 30.61400331 13.88395957 27 17 C19.69251528 22.29055688 10.59610872 21.99252259 2 21 C-4.51161454 19.0580845 -9.44325747 15.80934613 -13 10 C-13.56508317 6.46823016 -13.45104036 4.79469015 -11.6875 1.6875 C-8.11570404 -1.88429596 -4.59288459 -1.02943965 0 0 Z " fill="#000000" transform="translate(246,166)"/>
</svg>
